Results
version=1
nRows=26
nColumns=24
inDegrees=yes
endheader
time	pelvis_tilt	pelvis_list	pelvis_rotation	pelvis_tx	pelvis_ty	pelvis_tz	hip_flexion_r	hip_adduction_r	hip_rotation_r	knee_angle_r	ankle_angle_r	subtalar_angle_r	mtp_angle_r	hip_flexion_l	hip_adduction_l	hip_rotation_l	knee_angle_l	ankle_angle_l	subtalar_angle_l	mtp_angle_l	lumbar_extension	lumbar_bending	lumbar_rotation
      0.72883333	     -2.88523517	      0.82900961	      0.12793430	     -0.41158374	      1.00958525	      0.30416443	     13.68532215	      2.11315666	      1.13177467	    -22.49627919	     11.69337104	     -5.77576649	      3.48757668	     17.35458320	      0.69389427	     -3.72408175	    -66.09382427	     -9.09473130	     -5.60593604	      6.08037469	    -10.59703844	      5.66179034	      2.11874454
      0.73300000	     -2.85687378	      0.89917855	      0.24878351	     -0.40641768	      1.01043704	      0.30416252	     13.14668374	      2.03829419	      1.11034722	    -22.13488838	     11.72559957	     -5.90989246	      3.40794987	     17.81959332	      0.79015490	     -3.61211745	    -65.82303659	     -8.31840277	     -5.98327048	      6.00670712	    -10.66371880	      5.50220714	      2.30564920
      0.73716667	     -2.85950144	      0.97789901	      0.36652258	     -0.40123900	      1.01123740	      0.30413970	     12.64978954	      1.94946968	      1.05993862	    -21.79280864	     11.78344874	     -5.97234785	      3.38418174	     18.30352923	      0.89471127	     -3.51778203	    -65.48646210	     -7.56815986	     -6.37721081	      5.99467352	    -10.66736980	      5.35477070	      2.37821511
      0.74133333	     -2.79910668	      1.04876563	      0.48280652	     -0.39605716	      1.01213004	      0.30415443	     12.05666303	      1.88082275	      1.05104912	    -21.38618036	     11.77357199	     -6.13658606	      3.30804467	     18.70036631	      0.98807476	     -3.41868841	    -65.07466978	     -6.85789585	     -6.71876693	      5.92823211	    -10.78367374	      5.16892261	      2.62555274
      0.74550000	     -2.76294421	      1.12710192	      0.58415945	     -0.39086646	      1.01297845	      0.30416500	     11.49652009	      1.80466275	      1.04404807	    -20.99340059	     11.77257766	     -6.26930767	      3.22987868	     19.10521956	      1.08703955	     -3.34279314	    -64.59681192	     -6.16227696	     -7.06889026	      5.85677622	    -10.85203474	      4.99891982	      2.80077026
      0.74966667	     -2.75289278	      1.20765915	      0.67829009	     -0.38568938	      1.01375375	      0.30418056	     10.97034685	      1.72879269	      1.04611466	    -20.61030195	     11.76596194	     -6.40493338	      3.14349554	     19.52527468	      1.18741587	     -3.27500966	    -64.06142894	     -5.49038069	     -7.39607136	      5.77393568	    -10.89273574	      4.82573096	      2.98204916
      0.75383333	     -2.72120121	      1.30146072	      0.75497453	     -0.38049103	      1.01456716	      0.30420656	     10.41751168	      1.64045109	      1.05601118	    -20.21978365	     11.75846289	     -6.52294872	      3.04899652	     19.89590501	      1.29791561	     -3.22911947	    -63.44616262	     -4.85004612	     -7.72334244	      5.67599801	    -10.95316735	      4.64262870	      3.15205494
      0.75800000	     -2.72828757	      1.40229714	      0.84343514	     -0.37531684	      1.01528419	      0.30418098	      9.92355600	      1.53579536	      1.02900056	    -19.86571750	     11.74517178	     -6.60304137	      3.00612551	     20.29727409	      1.43242295	     -3.15524525	    -62.77885284	     -4.21006540	     -8.02346790	      5.63673929	    -10.97340599	      4.46464908	      3.25494264
      0.76216667	     -2.65633090	      1.50417180	      0.91487893	     -0.37008765	      1.01615782	      0.30420161	      9.30570611	      1.44098641	      1.04699246	    -19.42797251	     11.70780858	     -6.74621737	      2.92869056	     20.57784039	      1.55409219	     -3.11021387	    -62.01482632	     -3.65063387	     -8.29632917	      5.54825191	    -11.07892665	      4.25281860	      3.46758219
      0.76633333	     -2.65690443	      1.61113931	      0.98055337	     -0.36490450	      1.01685137	      0.30417365	      8.80220607	      1.33297772	      1.04175009	    -19.06526423	     11.67015611	     -6.82914521	      2.87740419	     20.92843364	      1.69558583	     -3.04872414	    -61.21104808	     -3.05805436	     -8.54982504	      5.49033410	    -11.10755671	      4.08511191	      3.59946435
      0.77050000	     -2.62775128	      1.70588874	      1.03631633	     -0.35968008	      1.01756985	      0.30419531	      8.24012794	      1.24561314	      1.06394099	    -18.64593234	     11.63596222	     -6.95309554	      2.78842102	     21.22550206	      1.80732211	     -3.01194560	    -60.34615195	     -2.53539060	     -8.77913809	      5.36962554	    -11.16586722	      3.86982765	      3.82376366
      0.77466667	     -2.63854368	      1.75932315	      1.09556871	     -0.35447773	      1.01820759	      0.30419575	      7.71865459	      1.20408741	      1.09537977	    -18.21257051	     11.51695428	     -7.12344029	      2.36351059	     21.55798060	      1.88242697	     -2.94873574	    -59.44882705	     -1.95401695	     -8.91935867	      4.71138022	    -11.17733243	      3.72492850	      4.10806610
      0.77883333	     -2.61990254	      1.89547779	      1.14091290	     -0.34926333	      1.01886425	      0.30413413	      7.20105200	      1.05651291	      1.06054973	    -17.86653875	     11.50390205	     -7.13591156	      2.32228853	     21.81591944	      2.06242243	     -2.89034536	    -58.43911520	     -1.47069723	     -9.13404524	      4.65698520	    -11.21831471	      3.52768099	      4.14417241
      0.78300000	     -2.56648809	      1.99299671	      1.19260086	     -0.34402241	      1.01955536	      0.30408394	      6.60916473	      0.95582011	      1.04089316	    -17.43846069	     11.46436555	     -7.18018926	      2.26423359	     22.02168898	      2.19560370	     -2.82363562	    -57.38520706	     -1.03015593	     -9.30866331	      4.56866442	    -11.30456599	      3.33725165	      4.30054019
      0.78716667	     -2.55718976	      2.08523989	      1.23217512	     -0.33880329	      1.02013143	      0.30402883	      6.08037905	      0.86018852	      1.03088200	    -17.03897900	     11.40119779	     -7.23117837	      2.20267009	     22.25941885	      2.32678971	     -2.75047952	    -56.28471531	     -0.58703171	     -9.44500577	      4.46636947	    -11.34017670	      3.16353421	      4.46937696
      0.79133333	     -2.57966219	      2.16802455	      1.27288640	     -0.33359229	      1.02061777	      0.30393217	      5.59933045	      0.76829053	      0.99836080	    -16.66584772	     11.30591310	     -7.25759678	      2.16152232	     22.51419261	      2.45934906	     -2.65150795	    -55.13558513	     -0.14914423	     -9.55435823	      4.39703359	    -11.33456530	      3.02483743	      4.59608687
      0.79550000	     -2.52157575	      2.22440043	      1.30490877	     -0.32835335	      1.02119149	      0.30387573	      4.99563647	      0.71463095	      1.01201008	    -16.21540184	     11.23163362	     -7.31431423	      2.08335443	     22.66118828	      2.55252321	     -2.55836646	    -53.93567750	      0.23501005	     -9.65731647	      4.23701486	    -11.44044242	      2.88469431	      4.80035553
      0.79966667	     -2.53312544	      2.30512860	      1.34661663	     -0.32310109	      1.02164806	      0.30374132	      4.49349312	      0.61977311	      0.95126677	    -15.82468130	     11.12018879	     -7.32982511	      2.04358816	     22.85607043	      2.69048945	     -2.43752097	    -52.66560200	      0.58909063	     -9.71407692	      4.15771101	    -11.42940684	      2.74200123	      4.91285249
      0.80383333	     -2.46979719	      2.34692920	      1.38215615	     -0.31784284	      1.02216142	      0.30364871	      3.87826885	      0.57698030	      0.93453956	    -15.36085647	     11.03952656	     -7.37042103	      1.98795195	     22.95644035	      2.77624823	     -2.31590837	    -51.35947213	      0.89151827	     -9.78218904	      4.02887870	    -11.53284276	      2.63127653	      5.08837487
      0.80800000	     -2.44207559	      2.39793362	      1.41183051	     -0.31258353	      1.02258458	      0.30352155	      3.31725121	      0.51797283	      0.90776215	    -14.93014138	     10.93339943	     -7.38669196	      1.93167738	     23.07071659	      2.88191634	     -2.17434114	    -49.99549591	      1.17608851	     -9.83356444	      3.88863726	    -11.58730146	      2.51774669	      5.24267149
      0.81216667	     -2.42416014	      2.42951513	      1.44278496	     -0.30733186	      1.02295005	      0.30338485	      2.76679467	      0.47975645	      0.87984814	    -14.49648294	     10.81731837	     -7.39793874	      1.87568197	     23.17936993	      2.97115209	     -2.01100781	    -48.58831085	      1.42616278	     -9.87079517	      3.73897786	    -11.63175732	      2.42904758	      5.38989250
      0.81633333	     -2.40604183	      2.46570850	      1.47207895	     -0.30206097	      1.02326883	      0.30322927	      2.21770481	      0.43315007	      0.83410498	    -14.06867419	     10.70839892	     -7.39123414	      1.82442447	     23.26445664	      3.06648756	     -1.84115744	    -47.12967509	      1.63519098	     -9.90075826	      3.59312083	    -11.66999598	      2.33982907	      5.52896810
      0.82050000	     -2.38735904	      2.45719494	      1.49175316	     -0.29678277	      1.02355521	      0.30311253	      1.65077151	      0.44233659	      0.84390256	    -13.59468048	     10.52365211	     -7.44887620	      1.37697087	     23.33629265	      3.10459593	     -1.66827866	    -45.64471931	      1.87270205	     -9.81824740	      2.13074818	    -11.71388014	      2.28389216	      5.78286910
      0.82466667	     -2.36546853	      2.49472170	      1.52443866	     -0.29150676	      1.02379713	      0.30289548	      1.10915136	      0.38592532	      0.75655814	    -13.19347645	     10.45199007	     -7.37452044	      1.35276386	     23.37005029	      3.22011599	     -1.44134797	    -44.07731864	      1.97937963	     -9.92185561	      2.07207108	    -11.75377740	      2.21050467	      5.81253565
      0.82883333	     -2.34149368	      2.48718057	      1.55348044	     -0.28621681	      1.02399071	      0.30269995	      0.55157368	      0.38325881	      0.70276814	    -12.75784977	     10.32312256	     -7.34133244	      1.32762239	     23.38995919	      3.27782976	     -1.21053396	    -42.48827850	      2.08032388	     -9.94425150	      2.00709894	    -11.79712331	      2.17839330	      5.93455560
      0.83300000	     -2.32951082	      2.47611360	      1.57971384	     -0.28091942	      1.02412488	      0.30250218	      0.00757791	      0.38442410	      0.65200180	    -12.32160206	     10.18522840	     -7.31898476	      1.30409776	     23.40117308	      3.33223727	     -0.96621069	    -40.85391061	      2.14366026	     -9.96477716	      1.93814093	    -11.82773496	      2.14795572	      6.06256006
